<svg height="136" width="136" xmlns="http://www.w3.org/2000/svg" xmlns:xlink="http://www.w3.org/1999/xlink"><clipPath id="a"><path d="m105.925 94.798a2.84 2.84 0 0 1 -2.843 2.842h-20.484a2.842 2.842 0 0 1 -2.842-2.842v-25.368a2.843 2.843 0 0 1 2.842-2.842h20.484a2.843 2.843 0 0 1 2.843 2.842z" xmlns:xlink="http://www.w3.org/1999/xlink"/></clipPath><g transform="scale(.99391229)"><circle cx="68.417" cy="68.416" fill="#6ec2cb" r="63.333"/><path d="m102.891 49.054h-69.471c-5.136 0-8.366 3.231-8.366 8.364v36.982c0 5.135 3.23 8.367 8.366 8.367h69.471c5.136 0 8.368-3.232 8.368-8.367v-36.982c0-5.132-3.233-8.364-8.368-8.364zm-32.738 8.349.022-.006c-.023.018-.052.031-.076.048-.055.04-.114.073-.171.108a2.754 2.754 0 0 1 -.316.173c-.061.028-.123.057-.187.081-.12.049-.243.084-.368.115-.061.016-.115.033-.175.042a2.93 2.93 0 0 1 -.578.06 3.106 3.106 0 1 1 3.105-3.105 3.095 3.095 0 0 1 -1.256 2.484z" fill="#e9e4b1"/><path d="m69.058 57.923c-.06.016-.115.033-.175.042.059-.009.114-.027.175-.042z" fill="#fff"/><path d="m70.1 57.445c-.055.04-.114.073-.171.108.056-.035.116-.068.171-.108z" fill="#fff"/><path d="m69.612 57.727c-.061.028-.123.059-.187.081.064-.024.127-.053.187-.081z" fill="#fff"/><path d="m68.305 58.024c.196 0 .389-.022.578-.06.06-.009.115-.026.175-.042.125-.031.248-.068.368-.115.063-.022.126-.053.187-.081.111-.051.215-.108.316-.173.057-.036.116-.068.171-.108.019-.013.035-.031.054-.042-.121.024-1.784.367-3.044-.362-1.358-.789-1.91-2.122-1.91-2.122a3.104 3.104 0 0 0 3.105 3.105z" fill="#58595a"/><path d="m70.176 57.397-.022.006c-.019.011-.035.029-.054.042.024-.017.052-.03.076-.048z" fill="#fff"/><path clip-path="url(#a)" d="m105.925 94.798a2.84 2.84 0 0 1 -2.843 2.842h-20.484a2.842 2.842 0 0 1 -2.842-2.842v-25.368a2.843 2.843 0 0 1 2.842-2.842h20.484a2.843 2.843 0 0 1 2.843 2.842z" fill="#90b9c0"/><path clip-path="url(#a)" d="m94.938 88.598v-1.678c2.462-1.065 4.106-3.855 4.404-7.28.444-.194.78-.859.78-1.688 0-.946-.433-1.704-.976-1.752-.754-3.338-3.151-5.058-6.423-5.058-3.271 0-5.699 1.72-6.465 5.058-.543.044-.978.807-.978 1.752 0 .829.334 1.492.78 1.688.298 3.405 1.95 6.186 4.398 7.264v1.696c-7.567.11-9 .977-9 6.514v4.147h22.574v-4.147c.003-5.559-1.473-6.41-9.094-6.516z" fill="#fff"/><g fill="#5b4f3f"><path d="m32.425 67.273h39.142v4.451h-39.142z"/><path d="m32.425 73.752h39.142v1.899h-39.142z"/><path d="m54.477 79.525h17.093v3.086h-17.093z"/><path d="m32.425 79.525h17.094v3.086h-17.094z"/></g><path d="m73.814 49.042a5.742 5.742 0 0 0 .622-2.599c0-1.219-2.47-2.138-5.744-2.138-3.276 0-5.746.919-5.746 2.138a5.752 5.752 0 0 0 6.641 5.675s.345.122.74.457c.284.244.593.68.593.68a7.366 7.366 0 0 1 -2.229.345c-4.067 0-7.376-3.31-7.376-7.377 0-2.299 3.705-3.328 7.377-3.328s7.375 1.028 7.375 3.328c0 .999-.199 1.95-.561 2.82z" fill="#58595a"/><path d="m73.814 49.042a5.742 5.742 0 0 0 .622-2.599c0-1.219-2.47-2.138-5.744-2.138-3.276 0-5.746.919-5.746 2.138a5.752 5.752 0 0 0 6.641 5.675s.345.122.74.457c.284.244.593.68.593.68a7.366 7.366 0 0 1 -2.229.345c-4.067 0-7.376-3.31-7.376-7.377 0-2.299 3.705-3.328 7.377-3.328s7.375 1.028 7.375 3.328c0 .999-.199 1.95-.561 2.82z" fill="#58595a"/><path d="m73.814 49.042a5.742 5.742 0 0 0 .622-2.599c0-1.219-2.47-2.138-5.744-2.138-3.276 0-5.746.919-5.746 2.138a5.752 5.752 0 0 0 6.641 5.675s.345.122.74.457c.284.244.593.68.593.68a7.366 7.366 0 0 1 -2.229.345c-4.067 0-7.376-3.31-7.376-7.377 0-2.299 3.705-3.328 7.377-3.328s7.375 1.028 7.375 3.328c0 .999-.199 1.95-.561 2.82z" fill="#58595a"/><path d="m74.748 44.127c0 .793-1.234 1.437-2.755 1.437h-6.485c-1.521 0-2.755-.643-2.755-1.437s1.233-1.437 2.755-1.437h6.485c1.521 0 2.755.643 2.755 1.437z" fill="#ce2f2e"/><path d="m69.021 32.561c.83 4.058 2.04 8.203 3.785 12.187h.191c7.356-18.206 7.221-32.943 6.793-38.625a63.532 63.532 0 0 0 -9.695-.996c.468 4.005 1.401 15.334-1.074 27.434z" fill="#ad2728"/><path d="m65.043 44.748h.192c1.745-3.984 2.955-8.129 3.786-12.187-2.482-12.134-1.537-23.489-1.071-27.466a63.717 63.717 0 0 0 -9.684.808c-.439 5.515-.675 20.399 6.777 38.845z" fill="#ce2f2e"/><path d="m65.235 44.748h7.571c-1.745-3.984-2.955-8.129-3.785-12.187-.831 4.058-2.041 8.202-3.786 12.187z" fill="#ce2f2e"/><path d="m33.339 49.054c-5.136 0-8.366 3.231-8.366 8.364v36.982c0 5.135 3.23 8.367 8.366 8.367h57.661l-53.712-53.713z" fill="#efefef" opacity=".25"/><path d="m70.1 57.445c.024-.018.053-.031.076-.048l-.022.006c-.019.012-.036.029-.054.042z" fill="#d7d7d7"/></g></svg>