<svg height="136" width="136" xmlns="http://www.w3.org/2000/svg"><g transform="scale(.99391229)"><circle cx="68.417" cy="68.417" fill="#49a0ae" r="63.333"/><path d="m108.417 83.018a8.349 8.349 0 0 1 -8.348 8.348h-63.305a8.35 8.35 0 0 1 -8.348-8.348v-36.87a8.349 8.349 0 0 1 8.348-8.348h63.305a8.349 8.349 0 0 1 8.348 8.348z" fill="#dff1ed"/><path d="m89.106 102.601a1.675 1.675 0 0 1 -2.37 0l-8-11.298a1.678 1.678 0 0 1 0-2.37h18.369a1.677 1.677 0 0 1 0 2.37z" fill="#dff1ed"/><g fill="#b7cac4"><path d="m96.231 51.987a3.033 3.033 0 0 1 -3.033 3.033h-49.748a3.033 3.033 0 0 1 0-6.066h49.748a3.033 3.033 0 0 1 3.033 3.033z"/><path d="m96.231 64.121a3.033 3.033 0 0 1 -3.033 3.033h-49.748a3.033 3.033 0 1 1 0-6.067h49.748a3.033 3.033 0 0 1 3.033 3.034z"/><path d="m96.231 76.254a3.033 3.033 0 0 1 -3.033 3.033h-49.748a3.033 3.033 0 0 1 0-6.066h49.748a3.033 3.033 0 0 1 3.033 3.033z"/></g></g></svg>