<svg xmlns="http://www.w3.org/2000/svg" width="136" height="136"><g transform="translate(0 0)"><g transform='scale(0.9939050236052442)'><g class="nc-icon-wrapper"><circle class="st0" cx="68.417" cy="68.417" r="63.333" style="" fill="#49A0AE"/><path class="st0" d="M31.305 39.08h73.748c5.961 0 10.792 4.832 10.792 10.793v60.496c9.891-11.174 15.905-25.857 15.905-41.951 0-34.98-28.355-63.334-63.334-63.334-34.977 0-63.332 28.354-63.332 63.334 0 15.832 5.824 30.297 15.429 41.4V49.873c0-5.961 4.831-10.793 10.792-10.793z" style="" fill="#49A0AE"/><path class="st7" d="M68.416 131.75c18.883 0 35.825-8.273 47.429-21.381V49.873c0-5.961-4.831-10.793-10.792-10.793H31.305c-5.961 0-10.792 4.832-10.792 10.793v59.945c11.613 13.426 28.759 21.932 47.903 21.932z" style="" fill="#E8E8E8"/><path class="st28" d="M105.238 85.742a2.038 2.038 0 0 1-2.034 2.031H32.573c-1.122 0-2.03-.91-2.028-2.033 0-1.119.906-2.025 2.026-2.025l70.635-.004c1.12.001 2.028.91 2.032 2.031z" style="" fill="#C6C5C5"/><path class="st28" d="M68.514 74.21l-35.942.004c-1.12 0-2.026.906-2.026 2.025a2.028 2.028 0 0 0 2.028 2.033h35.938c1.12 0 2.03-.91 2.034-2.031a2.038 2.038 0 0 0-2.032-2.031z" style="" fill="#C6C5C5"/><g><path class="st15" d="M118.43 93.218L61.712 36.414l-.049.026-4.776 2.612h5.583l53.212 53.303v5.58z" style="" fill="#BC2C2A"/><path class="st39" d="M91.223 36.414H61.712l56.718 56.804v-29.51z" style="" fill="#CC3432"/></g><g><path class="st54" d="M103.308 60.322l-2.824-3.783L102 52.067a.519.519 0 0 0-.658-.66l-4.473 1.517-3.783-2.824a.524.524 0 0 0-.548-.047.516.516 0 0 0-.282.47l.06 4.721-3.854 2.726a.52.52 0 0 0 .143.922l4.511 1.401 1.401 4.509a.516.516 0 0 0 .496.366.52.52 0 0 0 .424-.221l2.727-3.854 4.721.06c.188-.016.381-.106.47-.283a.524.524 0 0 0-.047-.548z" style="" fill="#DDA027"/></g></g></g></g></svg>