<svg xmlns="http://www.w3.org/2000/svg" width="65" height="65"><g transform="translate(0 0)"><g class="nc-icon-wrapper"><path fill="#BF4925" d="M54.396 61.184a1.03 1.03 0 0 1-1.031 1.031H11.633a1.03 1.03 0 0 1-1.029-1.031v-2.575c0-.569.461-1.03 1.029-1.03h41.732c.57 0 1.031.461 1.031 1.03v2.575z"/><path fill="#DD622C" d="M10.604 58.608c0-.569.461-1.03 1.029-1.03h41.732c.57 0 1.031.461 1.031 1.03"/><path fill="#BAAE9D" d="M53.109 57.213a1.03 1.03 0 0 1-1.031 1.031H12.922a1.032 1.032 0 0 1-1.031-1.031V28.188c0-.569.463-1.03 1.031-1.03h39.156c.57 0 1.031.461 1.031 1.03v29.025z"/><path fill="#9B9083" d="M39.379 58.244h12.699a1.03 1.03 0 0 0 1.031-1.031V28.188a1.03 1.03 0 0 0-1.031-1.03H12.922c-.568 0-1.031.461-1.031 1.03v2.569l27.488 27.487z"/><path fill="#DD622C" d="M58.498 28.126L33.592 3.22c-.578-.58-1.605-.58-2.186 0L6.502 28.126a1.549 1.549 0 0 0-.336 1.684c.24.578.805.954 1.43.954h49.811a1.546 1.546 0 0 0 1.091-2.638z"/><path fill="#BF4925" d="M58.498 28.126L33.592 3.22c-.578-.58-1.605-.58-2.186 0L11.699 28.126a1.545 1.545 0 0 0 1.094 2.638h44.613a1.546 1.546 0 0 0 1.092-2.638z"/><circle fill="#007EEF" cx="20.583" cy="44.934" r="3.521"/><path fill="#005CB7" d="M24.104 44.934a3.521 3.521 0 0 1-3.521 3.521c-1.943 0-2.104-1.577-2.104-3.521s.16-3.521 2.104-3.521a3.52 3.52 0 0 1 3.521 3.521z"/><path fill="#BAAE9D" d="M20.068 39.824h1.029v10.219h-1.029z"/><path fill="#BAAE9D" d="M15.475 44.418h10.217v1.031H15.475z"/><g><circle fill="#007EEF" cx="44.416" cy="44.934" r="3.521"/><path fill="#005CB7" d="M47.938 44.934c0 1.944-1.578 3.521-3.521 3.521s-2.105-1.577-2.105-3.521.162-3.521 2.105-3.521 3.521 1.576 3.521 3.521z"/><path fill="#9B9083" d="M43.9 39.824h1.031v10.219H43.9z"/><path fill="#9B9083" d="M39.307 44.418h10.219v1.031H39.307z"/></g><g><path fill="#DD622C" d="M26.385 20.073a3.918 3.918 0 0 0-3.674-2.576 3.92 3.92 0 0 0-3.676 2.576h7.35z"/><path fill="#DD622C" d="M36.174 20.073a3.918 3.918 0 0 0-3.674-2.576 3.922 3.922 0 0 0-3.676 2.576h7.35z"/><path fill="#DD622C" d="M45.963 20.073a3.918 3.918 0 0 0-3.674-2.576 3.922 3.922 0 0 0-3.676 2.576h7.35z"/></g><path fill="#005CB7" d="M38.047 61.548V44.47a5.548 5.548 0 0 0-11.094 0v17.078h11.094z"/><path fill="#754034" d="M30.875 39.166a5.547 5.547 0 0 0-3.922 5.304v17.078h7.844V44.47a5.548 5.548 0 0 0-3.922-5.304z"/><path fill="#4C2A25" d="M30.416 39.348c-2.027.825-3.463 2.799-3.463 5.122v17.078h6.928V44.47c0-2.324-1.438-4.297-3.465-5.122z"/></g></g></svg>