<svg height="512" width="512" xmlns="http://www.w3.org/2000/svg" xmlns:xlink="http://www.w3.org/1999/xlink"><linearGradient id="a" gradientUnits="userSpaceOnUse" x1="208.935" x2="303.065" y1="366.952" y2="366.952"><stop offset="0" stop-color="#47474a"/><stop offset=".62" stop-color="#616268"/><stop offset="1" stop-color="#6d6e75"/></linearGradient><linearGradient id="b" gradientUnits="userSpaceOnUse" x1="256.001" x2="256.001" y1="332.404" y2="394.916"><stop offset=".115" stop-color="#737377"/><stop offset=".189" stop-color="#707073"/><stop offset=".497" stop-color="#656766"/><stop offset=".624" stop-color="#4d4d51"/><stop offset="1" stop-color="#343439"/></linearGradient><linearGradient id="c" gradientUnits="userSpaceOnUse" x1="342.263" x2="434.989" y1="209.179" y2="209.179"><stop offset="0" stop-color="#959397"/><stop offset=".234" stop-color="#a6a4aa"/><stop offset=".731" stop-color="#c4c2cc"/><stop offset="1" stop-color="#d0ced9"/></linearGradient><path d="m256.003 7.924c-137.012 0-248.082 111.06-248.082 248.082 0 137.001 111.07 248.07 248.082 248.07 137.006 0 248.076-111.069 248.076-248.07 0-137.023-111.07-248.082-248.076-248.082z" fill="#48a1af"/><path d="m290.791 374.224.202-33.55a5.261 5.261 0 0 0 -5.259-5.261h-59.468a5.256 5.256 0 0 0 -5.259 5.261l.225 33.446-12.297 18.483v3.586c0 2.904 2.354 2.234 5.257 2.234h83.605c2.905 0 5.268.67 5.268-2.234v-3.586z" fill="url(#a)"/><path d="m290.791 371.21.202-33.547a5.253 5.253 0 0 0 -5.259-5.259h-59.468a5.248 5.248 0 0 0 -5.259 5.259l.225 33.444-12.297 21.498c0 2.908 2.354 2.248 5.257 2.248h83.605c2.905 0 5.268.66 5.268-2.248z" fill="url(#b)"/><path d="m401.88 113.509h-291.76c-10.925 0-19.776 8.859-19.776 19.782v195.33c0 10.923 8.852 19.774 19.776 19.774h291.76c10.918 0 19.776-8.852 19.776-19.774v-195.33c0-10.923-8.858-19.782-19.776-19.782z" fill="#08090b"/><path d="m104.568 126.512h302.261v1.038h-302.261z" fill="#343433"/><path d="m110.12 113.509c-10.925 0-19.776 8.859-19.776 19.782v171.559h14.225v-178.044h237.694l9.296-13.296h-241.439z" fill="#08090b"/><path d="m401.88 113.509h-50.321l-9.296 13.296h64.566v178.045h14.827v-171.558c0-10.924-8.858-19.783-19.776-19.783z" fill="#08090b"/><path d="m401.88 113.509h-50.321l-9.296 13.296h64.566v178.045h14.827v-171.558c0-10.924-8.858-19.783-19.776-19.783z" fill="url(#c)" opacity=".3"/><path d="m104.568 126.806h302.261v207.349h-302.261z" fill="#d3d3d3"/><path d="m401.88 113.509h-291.76c-10.925 0-19.776 8.859-19.776 19.782v195.33c0 10.923 8.852 19.774 19.776 19.774h291.76c10.918 0 19.776-8.852 19.776-19.774v-195.33c0-10.923-8.858-19.782-19.776-19.782z" fill="none"/><path d="m256.001 141.423c-48.646 0-88.08 39.431-88.08 88.081 0 48.642 39.434 88.077 88.08 88.077 48.643 0 88.078-39.435 88.078-88.077 0-48.65-39.435-88.081-88.078-88.081z" fill="#337180"/><path d="m316.911 233.636c8.296-2.825 17.335-4.719 27.149-5.616a91.087 91.087 0 0 0 -.201-4.725c-10.466.939-19.739 2.944-27.958 5.731-2.221-9.485-5.096-17.952-8.396-25.497 8.719-3.636 17.795-8.115 27.205-13.588a88.432 88.432 0 0 0 -2.236-4.165c-9.331 5.433-18.32 9.86-26.941 13.447-6.474-13.48-14.25-23.798-21.772-31.548a114.54 114.54 0 0 0 -6.847-6.494c8.567-2.373 17.7-4.153 27.399-5.331a87.965 87.965 0 0 0 -6.497-3.886c-7.639 1.156-14.767 2.684-21.425 4.525a152.657 152.657 0 0 1 4.536-11.483 86.971 86.971 0 0 0 -4.681-1.242 150.43 150.43 0 0 0 -4.993 12.779c-9.481-7.276-18.489-11.822-25.181-14.56a87.692 87.692 0 0 0 -9.608 1.618c5.166 1.542 17.357 5.9 30.642 15.755-17.911 6.146-32.002 14.685-43.1 24.233-6.875-13.55-14.294-22.941-17.638-26.857a87.444 87.444 0 0 0 -3.845 2.785c3.089 3.613 10.838 13.321 17.821 27.344a116.935 116.935 0 0 0 -16.776 19.604c-12.354-4.033-21.755-9.291-27.824-13.305a87.902 87.902 0 0 0 -1.876 4.469c6.139 3.997 15.211 8.973 27.029 12.943a122.516 122.516 0 0 0 -7.068 13.05 136.018 136.018 0 0 0 -6.17 15.806c-9.424-15.077-14.303-28.702-16.19-34.731a87.002 87.002 0 0 0 -2.056 8.598c3.015 8.023 8.213 19.694 16.469 32.114-3.333 12.185-4.544 22.884-4.953 30.176a88.191 88.191 0 0 0 4.551 6.694c.012-5.331.498-17.251 3.988-31.713a150.502 150.502 0 0 0 4.764 6.236c7.544 9.334 17.53 19.224 30.401 27.639-3.148 7.351-7.108 14.62-11.88 21.8a85.858 85.858 0 0 0 4.193 2.219c4.797-7.293 8.632-14.487 11.66-21.534a125.53 125.53 0 0 0 25.127 11.551c-2.065 7.935-2.961 14.638-3.352 18.918 1.574.099 3.157.156 4.751.172.39-4.042 1.249-10.299 3.142-17.664 12.006 3.511 25.543 5.603 40.768 5.603.498 0 1.002-.009 1.502-.013a88.21 88.21 0 0 0 7.535-4.962c-17.51.955-33.721-.733-48.578-5.029 1.658-5.561 3.901-11.576 6.945-17.637 4.803-9.563 10.77-17.769 17.856-24.632 8.145 9.222 18.722 17.098 31.66 23.589a259.612 259.612 0 0 1 -.89 18.007 88.566 88.566 0 0 0 5.109-5.017c.235-3.662.395-7.241.474-10.73 2.028.925 4.112 1.815 6.243 2.679a87.9 87.9 0 0 0 2.77-3.978 153.07 153.07 0 0 1 -8.936-3.898c.027-15.042-1.394-28.391-3.821-40.249zm-43.129-68.909a108.671 108.671 0 0 1 6.59 6.238c8.405 8.659 15.342 18.709 20.797 30.014-11.165 4.339-21.681 7.251-31.487 9.071-2.226-16.386.442-32.487 4.1-45.323zm-4.724-1.151c-3.793 13.313-6.504 30.044-4.073 47.275-11.05 1.704-21.142 2.032-30.172 1.489a126.717 126.717 0 0 0 -2.955-10.125 139.324 139.324 0 0 0 -5.807-14.434c11.92-10.523 26.273-18.603 43.007-24.205zm-46.662 27.586a132.872 132.872 0 0 1 4.988 12.565 128.693 128.693 0 0 1 2.467 8.224 125.015 125.015 0 0 1 -17.121-2.878 121.448 121.448 0 0 1 -4.509-1.189 110.858 110.858 0 0 1 14.175-16.722zm3.979 88.974c-10.407-6.971-19.874-15.693-28.356-26.163a143.302 143.302 0 0 1 -6.975-9.372c1.77-6.145 4.093-12.62 7.146-19.156a122.562 122.562 0 0 1 7.319-13.424c1.886.555 3.829 1.083 5.839 1.576 5.813 1.421 12.402 2.572 19.688 3.199 4.791 21.591 3.226 42.77-4.661 63.34zm35.769-4.227c-3.145 6.289-5.462 12.477-7.182 18.193-8.691-2.881-16.902-6.686-24.618-11.418 9.537-24.611 9.306-47.229 5.544-65.562 2.283.114 4.607.191 7.016.191 7.099 0 14.733-.536 22.861-1.792a82.735 82.735 0 0 0 3.539 12.704c2.862 7.775 6.883 14.939 12.039 21.479-8.794 8.401-14.942 17.689-19.199 26.205zm22.723-29.403c-4.752-6.079-8.475-12.707-11.121-19.884a76.6 76.6 0 0 1 -3.308-11.896c10.189-1.886 21.115-4.917 32.705-9.44 3.456 7.897 6.221 16.372 8.286 25.384-10.647 4.172-19.395 9.686-26.562 15.836zm2.931 3.522c7.167-6.187 15.387-11.105 24.619-14.761 2.252 11.302 3.442 23.408 3.559 36.249-11.453-6.016-20.864-13.188-28.178-21.488z" fill="#a3d5e0"/><g fill="#baebf4"><circle cx="314.046" cy="232.097" r="6.888"/><circle cx="284.328" cy="249.414" r="6.888"/><circle cx="256.385" cy="297.432" r="6.888"/><path d="m227.456 276.375a6.889 6.889 0 0 0 0 13.775 6.888 6.888 0 1 0 0-13.775z"/><circle cx="188.296" cy="244.888" r="6.888"/><circle cx="204.627" cy="209.072" r="6.888"/><circle cx="233.36" cy="214.779" r="6.887"/><circle cx="222.931" cy="186.835" r="6.888"/><path d="m272.719 150.822a8.659 8.659 0 1 0 0 17.317 8.656 8.656 0 0 0 8.658-8.658 8.657 8.657 0 0 0 -8.658-8.659z"/><circle cx="267.603" cy="213.205" r="6.888"/><path d="m304.796 195.297a6.884 6.884 0 0 0 -6.886 6.887 6.887 6.887 0 0 0 13.774 0 6.886 6.886 0 0 0 -6.888-6.887z"/><circle cx="318.177" cy="274.604" r="6.888"/></g></svg>