<svg xmlns="http://www.w3.org/2000/svg" width="136" height="136"><g transform="translate(0 0)"><g transform='scale(0.9939122872406511)'><g class="nc-icon-wrapper"><circle class="st1" cx="68.417" cy="68.417" r="63.333" style="" fill="#49A0AE"/><path class="st133" d="M108.417 83.018a8.349 8.349 0 0 1-8.348 8.348H36.764a8.35 8.35 0 0 1-8.348-8.348v-36.87a8.349 8.349 0 0 1 8.348-8.348h63.305a8.349 8.349 0 0 1 8.348 8.348v36.87z" style="" fill="#DFF1ED"/><path class="st133" d="M89.106 102.601a1.675 1.675 0 0 1-2.37 0l-8-11.298a1.678 1.678 0 0 1 0-2.37h18.369a1.677 1.677 0 0 1 0 2.37l-7.999 11.298z" style="" fill="#DFF1ED"/><g><path class="st22" d="M96.231 51.987a3.033 3.033 0 0 1-3.033 3.033H43.45a3.033 3.033 0 0 1 0-6.066h49.748a3.033 3.033 0 0 1 3.033 3.033z" style="" fill="#B7CAC4"/><path class="st22" d="M96.231 64.121a3.033 3.033 0 0 1-3.033 3.033H43.45a3.033 3.033 0 1 1 0-6.067h49.748a3.033 3.033 0 0 1 3.033 3.034z" style="" fill="#B7CAC4"/><path class="st22" d="M96.231 76.254a3.033 3.033 0 0 1-3.033 3.033H43.45a3.033 3.033 0 0 1 0-6.066h49.748a3.033 3.033 0 0 1 3.033 3.033z" style="" fill="#B7CAC4"/></g></g></g></g></svg>