<svg xmlns="http://www.w3.org/2000/svg" width="64" height="64"><g transform="translate(0 0)"><g class="nc-icon-wrapper"><path fill="#DAEAEF" d="M1 8h62v48H1z"/><path fill="#C7E0E5" d="M63 56L16.6 41.2 1 8h62z"/><g opacity=".5"><path fill="#1EA4C4" d="M2 32v3.2l3 3.6v-3.2z"/><path fill="#C42014" d="M2 40.1v3.2l3 3.6v-3.2z"/><path fill="#C42014" d="M2 23.9v3.2l3 3.6v-3.2z"/><path fill="#1EA4C4" d="M5 55.1v-3.2l-3-3.7v3.2z"/><path fill="#C42014" d="M2 8.4v2.4l3 3.7v-3.2z"/><path fill="#1EA4C4" d="M2 15.8V19l3 3.6v-3.2z"/><path fill="#1EA4C4" d="M2.4 56.4z"/></g><g opacity=".5"><path fill="#1EA4C4" d="M62 32v-3.2l-3-3.6v3.2z"/><path fill="#C42014" d="M62 23.9v-3.2l-3-3.6v3.2z"/><path fill="#C42014" d="M62 40.1v-3.2l-3-3.6v3.2z"/><path fill="#1EA4C4" d="M59 8.9v3.2l3 3.7v-3.2z"/><path fill="#C42014" d="M62 55.9v-2.7l-3-3.7v3.2z"/><path fill="#1EA4C4" d="M62 48.2V45l-3-3.6v3.2z"/><path fill="#1EA4C4" d="M61.6 7.6z"/></g><path fill="#E8F9FC" d="M63 56L36.8 29.7c-2.7-2.7-7-2.7-9.7 0L1 56h62z"/><path fill="#D1EFF2" d="M36.8 29.7c-2.7-2.7-7-2.7-9.7 0l-4.4 4.4 4.4 4.4c2.7 2.7 7 2.7 9.7 0l4.4-4.4-4.4-4.4z"/><path fill="#FFF" d="M1 8l26.2 26.3c2.7 2.7 7 2.7 9.7 0L63 8H1z"/><path fill="#E8F9FC" d="M36.8 34.3L63 8H29"/><g><path fill="#1EA4C4" d="M32 9h-3.2l-3.6 2h3.2z"/><path fill="#C42014" d="M23.9 9h-3.2l-3.6 2h3.2z"/><path fill="#C42014" d="M40.1 9h-3.2l-3.6 2h3.2z"/><path fill="#1EA4C4" d="M8.9 11h3.2l3.7-2h-3.2z"/><path fill="#C42014" d="M56.4 9h-3.2l-3.7 2h3.2z"/><path fill="#1EA4C4" d="M48.2 9H45l-3.6 2h3.2z"/><path fill="#1EA4C4" d="M7.6 9.3z"/><g><path fill="#1EA4C4" d="M32 55h3.2l3.6-2h-3.2z"/><path fill="#C42014" d="M40.1 55h3.2l3.6-2h-3.2z"/><path fill="#C42014" d="M23.9 55h3.2l3.6-2h-3.2z"/><path fill="#1EA4C4" d="M55.1 53h-3.2l-3.7 2h3.2z"/><path fill="#C42014" d="M7.6 55h3.2l3.7-2h-3.2z"/><path fill="#1EA4C4" d="M15.8 55H19l3.6-2h-3.2z"/><path fill="#1EA4C4" d="M56.4 54.7z"/></g></g></g></g></svg>