<svg height="136" width="136" xmlns="http://www.w3.org/2000/svg"><g transform="scale(.99390502)"><circle cx="68.417" cy="68.417" fill="#49a0ae" r="63.333"/><path d="m31.305 39.08h73.748c5.961 0 10.792 4.832 10.792 10.793v60.496c9.891-11.174 15.905-25.857 15.905-41.951 0-34.98-28.355-63.334-63.334-63.334-34.977 0-63.332 28.354-63.332 63.334 0 15.832 5.824 30.297 15.429 41.4v-59.945c0-5.961 4.831-10.793 10.792-10.793z" fill="#49a0ae"/><path d="m68.416 131.75c18.883 0 35.825-8.273 47.429-21.381v-60.496c0-5.961-4.831-10.793-10.792-10.793h-73.748c-5.961 0-10.792 4.832-10.792 10.793v59.945c11.613 13.426 28.759 21.932 47.903 21.932z" fill="#e8e8e8"/><path d="m105.238 85.742a2.038 2.038 0 0 1 -2.034 2.031h-70.631c-1.122 0-2.03-.91-2.028-2.033 0-1.119.906-2.025 2.026-2.025l70.635-.004c1.12.001 2.028.91 2.032 2.031z" fill="#c6c5c5"/><path d="m68.514 74.21-35.942.004c-1.12 0-2.026.906-2.026 2.025a2.028 2.028 0 0 0 2.028 2.033h35.938c1.12 0 2.03-.91 2.034-2.031a2.038 2.038 0 0 0 -2.032-2.031z" fill="#c6c5c5"/><path d="m118.43 93.218-56.718-56.804-.049.026-4.776 2.612h5.583l53.212 53.303v5.58z" fill="#bc2c2a"/><path d="m91.223 36.414h-29.511l56.718 56.804v-29.51z" fill="#cc3432"/><path d="m103.308 60.322-2.824-3.783 1.516-4.472a.519.519 0 0 0 -.658-.66l-4.473 1.517-3.783-2.824a.524.524 0 0 0 -.548-.047.516.516 0 0 0 -.282.47l.06 4.721-3.854 2.726a.52.52 0 0 0 .143.922l4.511 1.401 1.401 4.509a.516.516 0 0 0 .496.366.52.52 0 0 0 .424-.221l2.727-3.854 4.721.06c.188-.016.381-.106.47-.283a.524.524 0 0 0 -.047-.548z" fill="#dda027"/></g></svg>