<?xml version="1.0" encoding="utf-8"?>
<svg viewBox="0 0 30 30" width="30" height="30" xmlns="http://www.w3.org/2000/svg">
  <g id="icon/illustrations/envelope" stroke="none" stroke-width="1" fill="none" fill-rule="evenodd">
    <mask id="mask-2" fill="white">
      <path d="M 23.822 10.542 L 20.127 13.809 L 20.047 13.748 L 20.107 13.826 L 20.087 13.844 L 19.795 13.623 L 20.014 13.908 L 15.72 17.704 C 15.675 17.657 15.633 17.607 15.594 17.555 L 15.641 17.775 L 15.617 17.796 L 15.585 17.667 C 15.5 17.538 15.427 17.4 15.366 17.25 C 15.402 17.474 15.432 17.704 15.456 17.939 L 15.199 18.165 L 15.206 17.95 C 15.184 17.822 15.166 17.69 15.153 17.554 L 15.15 16.212 L 15.15 16.299 L 15.153 16.569 L 15.157 16.503 L 15.185 16.479 L 15.201 16.563 L 15.19 16.475 L 17.343 14.571 L 17.63 14.788 L 17.415 14.508 L 17.503 14.43 L 17.59 14.495 L 17.525 14.41 L 23.371 9.242 L 23.476 9.342 L 23.398 9.218 L 23.472 9.153 L 23.577 9.305 L 23.311 9.073 L 23.291 8.974 C 23.288 9.006 23.285 9.038 23.278 9.071 L 23.207 9.071 L 23.017 8.712 L 22.952 9.071 L 8.609 9.071 L 8.503 8.875 L 8.468 9.071 L 8.426 9.071 L 8.436 8.954 L 8.224 8.496 L 8.143 9.071 L 7.692 9.071 L 7.715 8.915 L 7.614 8.583 L 7.614 7.576 L 7.609 7.641 L 7.625 7.844 L 7.684 7.799 L 8.017 7.799 L 8.056 7.873 L 8.069 7.799 L 16.531 7.799 L 16.717 8.151 L 16.781 7.799 L 17.092 7.799 L 17.149 7.905 L 17.168 7.799 L 22.302 7.799 L 22.944 7.799 L 23.265 7.799 C 23.398 7.799 23.562 7.812 23.705 7.849 C 24.296 7.988 24.794 8.436 24.992 9.008 C 25.103 9.282 25.1 9.644 25.096 9.817 L 25.096 10.459 L 25.096 11.742 L 25.096 16.876 L 25.096 19.443 L 25.096 20.085 L 25.095 20.412 C 25.091 20.562 25.075 20.714 25.033 20.859 C 24.879 21.447 24.415 21.929 23.838 22.115 L 23.753 21.989 C 23.741 22.042 23.727 22.095 23.711 22.149 C 23.592 22.178 23.471 22.195 23.349 22.199 C 23.374 22.136 23.396 22.074 23.415 22.011 C 23.479 22.133 23.554 22.243 23.641 22.355 L 23.571 21.97 C 23.575 21.887 23.576 21.806 23.573 21.722 L 23.513 21.649 L 23.47 21.413 C 23.433 21.4 23.399 21.392 23.366 21.376 C 23.327 21.227 23.3 21.077 23.285 20.929 C 23.539 20.934 23.792 20.718 23.817 20.463 C 23.822 20.447 23.82 20.431 23.821 20.415 L 23.823 20.391 L 23.823 20.334 L 23.823 20.103 L 23.823 19.642 L 23.823 18.72 L 23.823 15.032 L 23.823 11.343 L 23.822 10.542 Z M 23.312 9.074 C 23.567 9.075 23.805 9.311 23.82 9.563 L 23.82 9.653 Z M 6.847 9.094 L 6.774 9.182 L 6.822 9.162 L 6.916 9.245 L 6.879 9.311 L 6.931 9.259 L 9.345 11.388 L 9.165 11.699 L 9.416 11.451 L 9.505 11.529 L 9.451 11.624 L 9.527 11.548 L 15.117 16.479 L 15.099 16.657 L 15.125 16.486 L 15.147 16.506 L 15.135 16.741 C 15.133 16.574 15.137 16.413 15.147 16.257 L 15.113 16.75 L 15.081 17.045 L 15.085 17.16 L 15.064 17.461 L 15.11 17.568 C 15.117 17.776 15.132 17.989 15.152 18.207 L 10.448 14.058 L 10.498 13.971 L 10.428 14.04 L 10.407 14.022 L 10.591 13.706 L 10.335 13.958 L 6.461 10.542 L 6.461 11.28 L 6.461 14.968 L 6.461 18.657 L 6.464 20.437 C 6.48 20.689 6.718 20.925 6.973 20.926 L 6.994 21.026 C 6.997 20.994 6.999 20.962 7.007 20.929 L 7.078 20.929 L 7.268 21.288 L 7.333 20.929 L 21.677 20.929 L 21.782 21.125 L 21.817 20.929 L 21.859 20.929 L 21.849 21.046 L 22.061 21.504 L 22.142 20.929 L 22.592 20.929 L 22.569 21.085 L 22.671 21.417 L 22.671 22.424 L 22.676 22.359 L 22.659 22.156 L 22.601 22.201 L 22.268 22.201 L 22.229 22.127 L 22.215 22.201 L 13.754 22.201 L 13.568 21.849 L 13.504 22.201 L 13.193 22.201 L 13.136 22.095 L 13.117 22.201 L 7.983 22.201 L 7.341 22.201 L 7.02 22.201 C 6.887 22.201 6.723 22.188 6.58 22.151 C 5.989 22.012 5.491 21.564 5.293 20.992 C 5.182 20.718 5.185 20.356 5.189 20.183 L 5.189 19.541 L 5.189 18.258 L 5.189 13.124 L 5.189 10.557 L 5.189 9.915 L 5.189 9.588 C 5.194 9.438 5.21 9.286 5.252 9.141 C 5.406 8.553 5.87 8.071 6.446 7.885 L 6.532 8.011 C 6.544 7.958 6.558 7.905 6.574 7.851 C 6.692 7.822 6.814 7.805 6.935 7.801 C 6.911 7.864 6.889 7.926 6.87 7.989 C 6.806 7.867 6.731 7.757 6.644 7.645 L 6.714 8.03 C 6.71 8.113 6.709 8.194 6.711 8.278 L 6.772 8.351 L 6.815 8.587 C 6.851 8.6 6.885 8.608 6.919 8.624 C 6.958 8.773 6.985 8.923 6.999 9.071 C 6.948 9.07 6.896 9.078 6.847 9.094 Z M 6.845 9.095 C 6.657 9.155 6.497 9.324 6.47 9.52 L 6.845 9.095 Z M 6.461 9.874 L 6.461 9.897 L 6.461 9.906 L 6.513 9.821 L 6.461 9.874 Z"/>
    </mask>
    <path d="M 23.822 10.542 L 20.127 13.809 L 20.047 13.748 L 20.107 13.826 L 20.087 13.844 L 19.795 13.623 L 20.014 13.908 L 15.72 17.704 C 15.675 17.657 15.633 17.607 15.594 17.555 L 15.641 17.775 L 15.617 17.796 L 15.585 17.667 C 15.5 17.538 15.427 17.4 15.366 17.25 C 15.402 17.474 15.432 17.704 15.456 17.939 L 15.199 18.165 L 15.206 17.95 C 15.184 17.822 15.166 17.69 15.153 17.554 L 15.15 16.212 L 15.15 16.299 L 15.153 16.569 L 15.157 16.503 L 15.185 16.479 L 15.201 16.563 L 15.19 16.475 L 17.343 14.571 L 17.63 14.788 L 17.415 14.508 L 17.503 14.43 L 17.59 14.495 L 17.525 14.41 L 23.371 9.242 L 23.476 9.342 L 23.398 9.218 L 23.472 9.153 L 23.577 9.305 L 23.311 9.073 L 23.291 8.974 C 23.288 9.006 23.285 9.038 23.278 9.071 L 23.207 9.071 L 23.017 8.712 L 22.952 9.071 L 8.609 9.071 L 8.503 8.875 L 8.468 9.071 L 8.426 9.071 L 8.436 8.954 L 8.224 8.496 L 8.143 9.071 L 7.692 9.071 L 7.715 8.915 L 7.614 8.583 L 7.614 7.576 L 7.609 7.641 L 7.625 7.844 L 7.684 7.799 L 8.017 7.799 L 8.056 7.873 L 8.069 7.799 L 16.531 7.799 L 16.717 8.151 L 16.781 7.799 L 17.092 7.799 L 17.149 7.905 L 17.168 7.799 L 22.302 7.799 L 22.944 7.799 L 23.265 7.799 C 23.398 7.799 23.562 7.812 23.705 7.849 C 24.296 7.988 24.794 8.436 24.992 9.008 C 25.103 9.282 25.1 9.644 25.096 9.817 L 25.096 10.459 L 25.096 11.742 L 25.096 16.876 L 25.096 19.443 L 25.096 20.085 L 25.095 20.412 C 25.091 20.562 25.075 20.714 25.033 20.859 C 24.879 21.447 24.415 21.929 23.838 22.115 L 23.753 21.989 C 23.741 22.042 23.727 22.095 23.711 22.149 C 23.592 22.178 23.471 22.195 23.349 22.199 C 23.374 22.136 23.396 22.074 23.415 22.011 C 23.479 22.133 23.554 22.243 23.641 22.355 L 23.571 21.97 C 23.575 21.887 23.576 21.806 23.573 21.722 L 23.513 21.649 L 23.47 21.413 C 23.433 21.4 23.399 21.392 23.366 21.376 C 23.327 21.227 23.3 21.077 23.285 20.929 C 23.539 20.934 23.792 20.718 23.817 20.463 C 23.822 20.447 23.82 20.431 23.821 20.415 L 23.823 20.391 L 23.823 20.334 L 23.823 20.103 L 23.823 19.642 L 23.823 18.72 L 23.823 15.032 L 23.823 11.343 L 23.822 10.542 Z M 23.312 9.074 C 23.567 9.075 23.805 9.311 23.82 9.563 L 23.82 9.653 Z M 6.847 9.094 L 6.774 9.182 L 6.822 9.162 L 6.916 9.245 L 6.879 9.311 L 6.931 9.259 L 9.345 11.388 L 9.165 11.699 L 9.416 11.451 L 9.505 11.529 L 9.451 11.624 L 9.527 11.548 L 15.117 16.479 L 15.099 16.657 L 15.125 16.486 L 15.147 16.506 L 15.135 16.741 C 15.133 16.574 15.137 16.413 15.147 16.257 L 15.113 16.75 L 15.081 17.045 L 15.085 17.16 L 15.064 17.461 L 15.11 17.568 C 15.117 17.776 15.132 17.989 15.152 18.207 L 10.448 14.058 L 10.498 13.971 L 10.428 14.04 L 10.407 14.022 L 10.591 13.706 L 10.335 13.958 L 6.461 10.542 L 6.461 11.28 L 6.461 14.968 L 6.461 18.657 L 6.464 20.437 C 6.48 20.689 6.718 20.925 6.973 20.926 L 6.994 21.026 C 6.997 20.994 6.999 20.962 7.007 20.929 L 7.078 20.929 L 7.268 21.288 L 7.333 20.929 L 21.677 20.929 L 21.782 21.125 L 21.817 20.929 L 21.859 20.929 L 21.849 21.046 L 22.061 21.504 L 22.142 20.929 L 22.592 20.929 L 22.569 21.085 L 22.671 21.417 L 22.671 22.424 L 22.676 22.359 L 22.659 22.156 L 22.601 22.201 L 22.268 22.201 L 22.229 22.127 L 22.215 22.201 L 13.754 22.201 L 13.568 21.849 L 13.504 22.201 L 13.193 22.201 L 13.136 22.095 L 13.117 22.201 L 7.983 22.201 L 7.341 22.201 L 7.02 22.201 C 6.887 22.201 6.723 22.188 6.58 22.151 C 5.989 22.012 5.491 21.564 5.293 20.992 C 5.182 20.718 5.185 20.356 5.189 20.183 L 5.189 19.541 L 5.189 18.258 L 5.189 13.124 L 5.189 10.557 L 5.189 9.915 L 5.189 9.588 C 5.194 9.438 5.21 9.286 5.252 9.141 C 5.406 8.553 5.87 8.071 6.446 7.885 L 6.532 8.011 C 6.544 7.958 6.558 7.905 6.574 7.851 C 6.692 7.822 6.814 7.805 6.935 7.801 C 6.911 7.864 6.889 7.926 6.87 7.989 C 6.806 7.867 6.731 7.757 6.644 7.645 L 6.714 8.03 C 6.71 8.113 6.709 8.194 6.711 8.278 L 6.772 8.351 L 6.815 8.587 C 6.851 8.6 6.885 8.608 6.919 8.624 C 6.958 8.773 6.985 8.923 6.999 9.071 C 6.948 9.07 6.896 9.078 6.847 9.094 Z M 6.845 9.095 C 6.657 9.155 6.497 9.324 6.47 9.52 L 6.845 9.095 Z M 6.461 9.874 L 6.461 9.897 L 6.461 9.906 L 6.513 9.821 L 6.461 9.874 Z" id="icon"/>
    <g id="color/dark-grey" mask="url(#mask-2)" fill="#666458">
      <g transform="translate(-10.000000, -10.000000)" id="Area">
        <rect x="0" y="0" width="50" height="50"/>
      </g>
    </g>
  </g>
</svg>