<svg height="512" width="512" xmlns="http://www.w3.org/2000/svg"><path d="m255.998 7.922c-137.005 0-248.077 111.062-248.077 248.082 0 137.004 111.071 248.074 248.076 248.074 137.012 0 248.081-111.07 248.081-248.074.001-137.02-111.069-248.082-248.08-248.082z" fill="#a3d5e0"/><path d="m256 105.665s-151.866 126.003-151.866 138.848v120.816c0 12.845 10.412 23.265 23.262 23.265h81.613v-72.129c0-16.777 13.599-30.372 30.374-30.372h34.167c16.771 0 30.374 13.595 30.374 30.372v72.129h83.215c12.845 0 23.259-10.42 23.259-23.265v-120.816c-.001-12.846-154.398-138.848-154.398-138.848z" fill="#e5aa17"/><g fill="#c69422"><path d="m444.323 237.268-176.906-152.837c-6.683-5.772-16.773-5.038-22.544 1.641-5.771 6.687-5.034 16.778 1.648 22.546l176.905 152.837c6.682 5.769 16.772 5.03 22.541-1.648 5.772-6.683 5.036-16.771-1.644-22.539z"/><path d="m269.716 86.071c-5.769-6.679-15.857-7.413-22.538-1.641l-176.911 152.838c-6.68 5.769-7.416 15.856-1.646 22.539 5.769 6.679 15.859 7.417 22.54 1.648l176.909-152.837c6.682-5.769 7.419-15.86 1.646-22.547z"/></g></svg>