<svg xmlns="http://www.w3.org/2000/svg" width="512" height="512"><g transform="translate(0 0)"><g class="nc-icon-wrapper"><path class="st111" d="M255.998 7.922C118.993 7.922 7.921 118.984 7.921 256.004c0 137.004 111.071 248.074 248.076 248.074 137.012 0 248.081-111.07 248.081-248.074.001-137.02-111.069-248.082-248.08-248.082z" style="" fill="#A3D5E0"/><path class="st12" d="M256 105.665S104.134 231.668 104.134 244.513v120.816c0 12.845 10.412 23.265 23.262 23.265h81.613v-72.129c0-16.777 13.599-30.372 30.374-30.372h34.167c16.771 0 30.374 13.595 30.374 30.372v72.129h83.215c12.845 0 23.259-10.42 23.259-23.265V244.513C410.397 231.667 256 105.665 256 105.665z" style="" fill="#E5AA17"/><path class="st66" d="M444.323 237.268L267.417 84.431c-6.683-5.772-16.773-5.038-22.544 1.641-5.771 6.687-5.034 16.778 1.648 22.546l176.905 152.837c6.682 5.769 16.772 5.03 22.541-1.648 5.772-6.683 5.036-16.771-1.644-22.539z" style="" fill="#C69422"/><path class="st66" d="M269.716 86.071c-5.769-6.679-15.857-7.413-22.538-1.641L70.267 237.268c-6.68 5.769-7.416 15.856-1.646 22.539 5.769 6.679 15.859 7.417 22.54 1.648L268.07 108.618c6.682-5.769 7.419-15.86 1.646-22.547z" style="" fill="#C69422"/></g></g></svg>