<svg height="512" width="512" xmlns="http://www.w3.org/2000/svg"><path d="m7.921 256.005c0-137.021 111.07-248.083 248.076-248.083 137.012 0 248.082 111.062 248.082 248.082 0 137.005-111.07 248.074-248.082 248.074-137.006 0-248.076-111.069-248.076-248.073z" fill="#a2d8d4"/><g fill="#81725b"><path d="m256 108.327a9.292 9.292 0 0 0 -9.293 9.296v212.056c0 5.135 4.16 9.293 9.293 9.293s9.293-4.158 9.293-9.293v-212.056a9.292 9.292 0 0 0 -9.293-9.296z"/><path d="m252.178 326.941a7.244 7.244 0 0 0 0 10.252l60.426 60.428a7.252 7.252 0 0 0 10.256 0 7.25 7.25 0 0 0 0-10.26l-60.426-60.42a7.252 7.252 0 0 0 -10.256 0z"/><path d="m260.475 326.941a7.251 7.251 0 0 1 0 10.252l-60.422 60.428a7.243 7.243 0 0 1 -10.248 0 7.24 7.24 0 0 1 0-10.26l60.418-60.42c2.826-2.832 7.427-2.832 10.252 0z"/></g><path d="m386.572 283.853c0 19.23-15.592 5.802-34.822 5.802h-188.6c-19.229 0-34.818 13.429-34.818-5.802v-145.074c0-19.23 15.59-8.709 34.818-8.709h188.6c19.23 0 34.822-10.521 34.822 8.709z" fill="#383939"/><path d="m399.625 126.34c0 4.812-5.457 8.706-12.193 8.706h-262.868c-6.732 0-12.189-3.895-12.189-8.706 0-4.807 5.457-8.702 12.189-8.702h262.867c6.737 0 12.194 3.895 12.194 8.702z" fill="#81725b"/><path d="m399.625 287.587c0 4.807-5.457 8.705-12.193 8.705h-262.868c-6.732 0-12.189-3.898-12.189-8.705 0-4.809 5.457-8.706 12.189-8.706h262.867c6.737 0 12.194 3.898 12.194 8.706z" fill="#81725b"/><g enable-background="new" opacity=".3"><g fill="#16193b"><path d="m370.25 163.088.031 1.497-.023 3.514-.024-1.493z" opacity=".1"/><path d="m261.859 165.379.026 1.496-.037 8.023-.032-1.497z" opacity=".1"/><path d="m275.768 165.429.021 1.496-.037 8.019-.027-1.489z" opacity=".1"/><path d="m289.648 165.479.024 1.492-.039 8.023-.028-1.493z" opacity=".1"/><path d="m303.557 165.528.027 1.493-.043 8.023-.031-1.493z" opacity=".1"/><path d="m317.434 165.575.027 1.496-.043 8.023-.022-1.493z" opacity=".1"/><path d="m331.342 165.625.027 1.496-.043 8.023-.025-1.497z" opacity=".1"/><path d="m342.449 165.667.024 1.492-.039 8.023-.022-1.493z" opacity=".1"/><path d="m356.354 165.713.031 1.496-.047 8.022-.022-1.492z" opacity=".1"/><path d="m261.801 176.103.027 1.492-.055 10.697-.025-1.493z" opacity=".1"/><path d="m275.709 176.148.027 1.497-.054 10.697-.026-1.492z" opacity=".1"/><path d="m289.594 176.202.023 1.489-.053 10.701-.027-1.493z" opacity=".1"/><path d="m303.498 176.249.023 1.496-.052 10.696-.024-1.496z" opacity=".1"/><path d="m317.381 176.298.029 1.493-.06 10.697-.024-1.493z" opacity=".1"/><path d="m331.289 176.348.025 1.493-.052 10.697-.028-1.493z" opacity=".1"/><path d="m342.396 176.387.022 1.492-.053 10.697-.023-1.493z" opacity=".1"/><path d="m356.301 176.437.021 1.492-.049 10.697-.027-1.493z" opacity=".1"/><path d="m261.74 189.474.024 1.492-.071 13.398-.027-1.496z" opacity=".1"/><path d="m275.645 189.523.023 1.493-.07 13.394-.024-1.493z" opacity=".1"/><path d="m289.525 189.569.024 1.497-.07 13.394-.022-1.492z" opacity=".1"/><path d="m303.43 189.623.027 1.489-.066 13.398-.03-1.496z" opacity=".1"/><path d="m317.311 189.669.027 1.497-.072 13.394-.024-1.493z" opacity=".1"/><path d="m331.215 189.719.031 1.493-.068 13.397-.028-1.496z" opacity=".1"/><path d="m342.326 189.758.024 1.492-.069 13.398-.023-1.496z" opacity=".1"/><path d="m356.23 189.808.028 1.496-.072 13.39-.024-1.488z" opacity=".1"/><path d="m303.373 207.184-.027-1.493 11.107.039.027 1.493" opacity=".1"/><path d="m261.656 205.546.022 1.492-.041 8.023-.024-1.493z" opacity=".1"/><path d="m275.561 205.592.021 1.496-.037 8.019-.027-1.489z" opacity=".1"/><path d="m289.441 205.646.028 1.488-.043 8.023-.024-1.493z" opacity=".1"/><path d="m303.346 205.691.027 1.493-.039 8.023-.027-1.493z" opacity=".1"/><path d="m317.23 205.738.028 1.496-.047 8.023-.023-1.493z" opacity=".1"/><path d="m331.139 205.788.023 1.496-.043 8.023-.023-1.497z" opacity=".1"/><path d="m342.242 205.83.024 1.492-.039 8.023-.024-1.492z" opacity=".1"/><path d="m356.15 205.876.024 1.496-.043 8.023-.024-1.493z" opacity=".1"/><path d="m261.598 216.243.027 1.488-.055 10.724-.029-1.493z" opacity=".1"/><path d="m275.506 216.289.023 1.496-.054 10.72-.022-1.496z" opacity=".1"/><path d="m289.387 216.339.023 1.492-.053 10.724-.027-1.493z" opacity=".1"/><path d="m303.291 216.389.023 1.492-.052 10.723-.024-1.496z" opacity=".1"/><path d="m317.174 216.438.029 1.493-.057 10.719-.027-1.492z" opacity=".1"/><path d="m331.086 216.488.021 1.492-.052 10.721-.024-1.493z" opacity=".1"/><path d="m342.189 216.526.022 1.493-.053 10.724-.023-1.496z" opacity=".1"/><path d="m356.098 216.573.021 1.496-.053 10.72-.027-1.493z" opacity=".1"/><path d="m261.533 229.637.022 1.492-.057 10.697-.027-1.493z" opacity=".1"/><path d="m275.438 229.687.023 1.492-.055 10.697-.031-1.493z" opacity=".1"/><path d="m289.318 229.732.024 1.497-.055 10.697-.023-1.496z" opacity=".1"/><path d="m303.223 229.786.027 1.493-.059 10.693-.021-1.489z" opacity=".1"/><path d="m317.104 229.833.031 1.496-.055 10.696-.029-1.496z" opacity=".1"/><path d="m331.008 229.882.031 1.493-.053 10.697-.031-1.493z" opacity=".1"/><path d="m342.119 229.921.024 1.492-.053 10.701-.028-1.497z" opacity=".1"/><path d="m356.023 229.971.028 1.496-.057 10.697-.023-1.497z" opacity=".1"/><path d="m261.459 243.008.023 1.496-.037 8.042-.027-1.492z" opacity=".1"/><path d="m275.367 243.062.024 1.488-.037 8.045-.032-1.492z" opacity=".1"/><path d="m289.25 243.107.021 1.493-.037 8.046-.027-1.492z" opacity=".1"/><path d="m303.154 243.157.026 1.493-.041 8.045-.024-1.492z" opacity=".1"/><path d="m317.035 243.207.024 1.489-.039 8.05-.024-1.496z" opacity=".1"/><path d="m330.943 243.253.028 1.497-.043 8.042-.028-1.494z" opacity=".1"/><path d="m342.051 243.292.023 1.496-.039 8.045-.031-1.492z" opacity=".1"/><path d="m355.955 243.346.027 1.488-.043 8.05-.027-1.497z" opacity=".1"/></g><path d="m261.656 253.728.022 1.496-3.024-.012-.029-1.492z" fill="#808080"/><path d="m272.76 253.773.021 1.489-11.103-.038-.022-1.496z" fill="#808080"/><path d="m275.537 253.781.027 1.489-2.783-.008-.021-1.489z" fill="#808080"/><path d="m370.234 166.606.024 1.493-.438 85.674-.029-1.492z" fill="#16193b" opacity=".1"/><path d="m286.668 253.82.018 1.492-11.122-.042-.027-1.489z" fill="#808080"/><path d="m289.441 253.828.032 1.496-2.787-.012-.018-1.492z" fill="#808080"/><path d="m300.549 253.866.027 1.497-11.103-.039-.032-1.496z" fill="#808080"/><path d="m303.326 253.88.028 1.49-2.778-.007-.027-1.497z" fill="#808080"/><path d="m314.457 253.919.023 1.493-11.126-.042-.028-1.49z" fill="#808080"/><path d="m317.23 253.927.028 1.496-2.778-.011-.023-1.493z" fill="#808080"/><path d="m328.334 253.965.027 1.493-11.103-.035-.028-1.496z" fill="#808080"/><path d="m331.115 253.977.024 1.493-2.778-.012-.027-1.493z" fill="#808080"/><path d="m339.465 254.003.031 1.497-8.357-.03-.024-1.493z" fill="#808080"/><path d="m342.242 254.015.028 1.492-2.774-.007-.031-1.497z" fill="#808080"/><path d="m353.35 254.054.027 1.492-11.107-.039-.028-1.492z" fill="#808080"/><path d="m356.123 254.066.031 1.492-2.777-.012-.027-1.492z" fill="#808080"/><path d="m367.258 254.103.023 1.497-11.127-.042-.031-1.492z" fill="#808080"/><path d="m369.791 252.281.029 1.492-.011 1.834-.026-1.496z" fill="#949494"/><path d="m367.727 163.081 2.523.008-.016 3.518-.443 85.674-.008 1.83-2.525-.008-11.135-.037-2.773-.012-11.107-.039-2.777-.012-8.35-.026-2.781-.012-11.104-.038-2.773-.008-11.131-.039-2.777-.015-11.107-.038-2.773-.008-11.131-.039-2.777-.008-11.104-.045-3.031-.008.016-1.83.037-8.046.016-2.678.055-10.697.014-2.674.055-10.72.016-2.674.037-8.026.016-2.67.07-13.398.014-2.674.055-10.697.016-2.674.037-8.049.02-3.514 3.027.007 11.107.042 2.773.011 11.131.039 2.777.008 11.107.038 2.775.012 11.129.038 2.779.012 11.104.038 2.777.008 8.352.031 2.775.012 11.111.038 2.773.012zm-14.342 40.109.068-13.39-11.127-.042-.068 13.394zm-52.799-.184.07-13.394-11.131-.042-.068 13.398zm27.791.099.068-13.397-11.135-.039-.068 13.398zm-13.912-.049.072-13.394-11.107-.039-.068 13.391zm-27.787-.1.07-13.394-11.104-.039-.07 13.394zm-13.905-.05.07-13.394-11.104-.039-.074 13.394zm94.493.338.068-13.398-11.104-.038-.068 13.398zm-39.016 23.952.053-10.72-11.129-.038-.055 10.72zm-27.789-.095.057-10.72-11.131-.042-.057 10.724zm52.801.184.053-10.72-11.125-.039-.055 10.72zm-38.92-.139.057-10.72-11.107-.038-.053 10.72zm14.111-40.109.057-10.7-11.129-.039-.055 10.697zm-41.896 40.014.053-10.724-11.104-.039-.053 10.72zm66.912-39.929.053-10.697-11.125-.038-.055 10.697zm-52.801-.184.053-10.697-11.127-.039-.057 10.697zm-28.02 40.063.053-10.72-11.104-.039-.057 10.72zm80.545 13.659.053-10.701-11.127-.038-.057 10.696zm13.95-13.322.055-10.724-11.1-.042-.059 10.724zm-66.752 13.134.055-10.697-11.127-.042-.055 10.697zm27.791.095.057-10.697-11.135-.038-.053 10.697zm-13.633-53.584.057-10.696-11.107-.039-.053 10.697zm-27.785-.095.053-10.697-11.107-.042-.053 10.701zm-13.912-.05.057-10.697-11.107-.039-.053 10.697zm41.421 53.683.057-10.697-11.107-.039-.053 10.697zm-27.791-.099.059-10.697-11.104-.039-.062 10.697zm80.868-53.25.059-10.697-11.107-.038-.055 10.697zm-94.776 53.2.062-10.697-11.104-.038-.062 10.697zm94.5.334.053-10.697-11.104-.038-.053 10.697zm-27.594-37.562.068-13.394-8.334-.031-.064 13.394zm-39.142 48.051.037-8.049-11.125-.039-.043 8.046zm52.801.184.039-8.049-11.127-.038-.047 8.049zm-25.016-.088.047-8.045-11.135-.039-.039 8.042zm-13.904-.049.043-8.046-11.107-.039-.039 8.045zm-27.785-.1.037-8.046-11.104-.035-.045 8.042zm-13.913-.047.045-8.049-11.107-.038-.041 8.046zm94.499.33.039-8.042-11.104-.038-.043 8.042zm-13.483-77.697.039-8.022-11.127-.038-.037 8.022zm-25.016-.088.047-8.023-11.135-.042-.037 8.026zm-27.785-.1.039-8.019-11.127-.042-.043 8.023zm52.594 40.351.043-8.022-11.131-.039-.039 8.023zm-25.012-.088.043-8.023-11.131-.042-.043 8.026zm-27.789-.1.039-8.019-11.127-.039-.039 8.019zm38.825 13.536.057-10.724-8.324-.027-.055 10.72zm-24.737-53.649.047-8.023-11.107-.039-.047 8.023zm-.207 40.162.043-8.022-11.107-.039-.039 8.023zm-27.578-40.258.039-8.026-11.104-.039-.043 8.026zm-.207 40.163.039-8.026-11.104-.039-.043 8.026zm52.939-26.581.053-10.697-8.328-.031-.055 10.697zm-66.64-13.632.043-8.023-11.107-.042-.043 8.022zm-.203 40.159.039-8.019-11.104-.038-.043 8.022zm94.703-39.826.037-8.026-11.107-.038-.037 8.026zm-.213 40.163.047-8.022-11.107-.042-.043 8.026zm-27.924 26.67.055-10.701-8.334-.027-.053 10.697zm-.057 10.72.043-8.045-8.33-.031-.043 8.045zm.399-77.652.043-8.022-8.33-.031-.041 8.022zm-.203 40.163.039-8.022-8.326-.031-.043 8.022z" fill="#fff"/><path d="m369.783 254.111.026 1.496-2.528-.007-.023-1.497z" fill="#808080"/></g><g opacity=".22"><path d="m262.223 166.638.023 1.492-.676 88.344-.029-1.492z"/><path d="m369.799 255.37.025 1.489-.015 2.678-.026-1.496z"/></g><g enable-background="new"><path d="m262.223 162.708.023 1.493-.676 88.345-.029-1.492z" fill="#949494"/><path d="m369.799 251.441.025 1.488-.015 2.678-.026-1.496z" fill="#949494"/><path d="m261.541 251.054 108.258.387-.016 2.67-111.054-.391.716-91.023 2.778.011z" fill="#fff"/></g><path d="m228.275 177.042c-8.816-8.966-21.078-14.53-34.652-14.53-13.521 0-25.744 5.525-34.562 14.434l34.885 35.843z" opacity=".22"/><path d="m193.301 255.796c27.502-.174 48.611-21.866 48.611-48.601 0-13.275-5.494-25.307-14.123-34.082l-34.488 35.747z" fill="#b3b3b3"/><path d="m228.275 173.114c-8.816-8.966-21.078-14.53-34.652-14.53-13.521 0-25.744 5.525-34.562 14.434l34.885 35.843z" fill="#808080"/><path d="m193.301 255.803v-46.943l-34.562-35.843c-8.678 8.782-14.045 20.849-14.045 34.177-.001 26.844 21.105 48.609 48.607 48.609z" fill="#ccc"/><path d="m341.08 184.313c2.828.011 5.092 2.21 5.076 4.911-.008 2.72-2.295 4.907-5.127 4.896-.648 0-1.297-.15-1.895-.368l-19.605 32.144a4.793 4.793 0 0 1 1.412 3.403c-.016 2.697-2.303 4.907-5.127 4.896-2.805-.012-5.072-2.233-5.057-4.934.008-1.178.465-2.237 1.193-3.081l-8.314-8.387c-.521.168-1.047.284-1.627.284a5.392 5.392 0 0 1 -1.971-.391l-8.074 8.379c.723.867 1.189 1.926 1.182 3.139-.006 2.693-2.301 4.903-5.125 4.896-2.801-.011-5.064-2.236-5.049-4.934.012-2.725 2.301-4.911 5.104-4.896.543 0 1.074.123 1.572.269l8.219-8.548c-.568-.798-.938-1.788-.934-2.847.016-2.701 2.33-4.88 5.131-4.873 2.801.011 5.064 2.21 5.053 4.911a4.686 4.686 0 0 1 -1.166 3.077l8.311 8.391c.525-.165 1.051-.288 1.6-.284.453.004.852.073 1.273.172l19.805-32.458c-.598-.821-.967-1.808-.959-2.893.007-2.698 2.294-4.881 5.099-4.874z" fill="#fff"/></svg>