<?xml version="1.0" encoding="utf-8"?>
<svg width="512" height="512" xmlns="http://www.w3.org/2000/svg">
  <g transform="translate(0 0)">
    <g class="nc-icon-wrapper">
      <g id="g462">
        <g id="g456">
          <g id="g6">
            <path id="path4" d="M7.921 256.005c0-137.021 111.07-248.083 248.076-248.083 137.012 0 248.082 111.062 248.082 248.082 0 137.005-111.07 248.074-248.082 248.074-137.006 0-248.076-111.069-248.076-248.073z" class="st104" style="" fill="#A2D8D4"/>
          </g>
          <g id="g454">
            <g id="g92">
              <g id="g18">
                <g id="g16">
                  <g id="g14">
                    <g id="g12">
                      <g id="g10">
                        <path id="path8" d="M256 108.327a9.292 9.292 0 0 0-9.293 9.296v212.056c0 5.135 4.16 9.293 9.293 9.293s9.293-4.158 9.293-9.293V117.623a9.292 9.292 0 0 0-9.293-9.296z" class="st19" style="" fill="#81725B"/>
                      </g>
                    </g>
                  </g>
                </g>
              </g>
              <g id="g34">
                <g id="g32">
                  <g id="g30">
                    <g id="g28">
                      <g id="g26">
                        <g id="g24">
                          <g id="g22">
                            <path id="path20" d="M252.178 326.941a7.244 7.244 0 0 0 0 10.252l60.426 60.428a7.252 7.252 0 0 0 10.256 0 7.25 7.25 0 0 0 0-10.26l-60.426-60.42a7.252 7.252 0 0 0-10.256 0z" class="st19" style="" fill="#81725B"/>
                          </g>
                        </g>
                      </g>
                    </g>
                  </g>
                </g>
              </g>
              <g id="g50">
                <g id="g48">
                  <g id="g46">
                    <g id="g44">
                      <g id="g42">
                        <g id="g40">
                          <g id="g38">
                            <path id="path36" d="M260.475 326.941a7.251 7.251 0 0 1 0 10.252l-60.422 60.428a7.243 7.243 0 0 1-10.248 0 7.24 7.24 0 0 1 0-10.26l60.418-60.42c2.826-2.832 7.427-2.832 10.252 0z" class="st19" style="" fill="#81725B"/>
                          </g>
                        </g>
                      </g>
                    </g>
                  </g>
                </g>
              </g>
              <g id="g62">
                <g id="g60">
                  <g id="g58">
                    <g id="g56">
                      <g id="g54">
                        <path id="path52" d="M386.572 283.853c0 19.23-15.592 5.802-34.822 5.802h-188.6c-19.229 0-34.818 13.429-34.818-5.802V138.779c0-19.23 15.59-8.709 34.818-8.709h188.6c19.23 0 34.822-10.521 34.822 8.709v145.074z" class="st71" style="" fill="#383939"/>
                      </g>
                    </g>
                  </g>
                </g>
              </g>
              <g id="g78">
                <g id="g76">
                  <g id="g74">
                    <g id="g72">
                      <g id="g70">
                        <g id="g68">
                          <g id="g66">
                            <path id="path64" d="M399.625 126.34c0 4.812-5.457 8.706-12.193 8.706H124.564c-6.732 0-12.189-3.895-12.189-8.706 0-4.807 5.457-8.702 12.189-8.702h262.867c6.737 0 12.194 3.895 12.194 8.702z" class="st19" style="" fill="#81725B"/>
                          </g>
                        </g>
                      </g>
                    </g>
                  </g>
                </g>
              </g>
              <g id="g90">
                <g id="g88">
                  <g id="g86">
                    <g id="g84">
                      <g id="g82">
                        <path id="path80" d="M399.625 287.587c0 4.807-5.457 8.705-12.193 8.705H124.564c-6.732 0-12.189-3.898-12.189-8.705 0-4.809 5.457-8.706 12.189-8.706h262.867c6.737 0 12.194 3.898 12.194 8.706z" class="st19" style="" fill="#81725B"/>
                      </g>
                    </g>
                  </g>
                </g>
              </g>
            </g>
            <g id="g410" class="st59" opacity="0.3">
              <g id="g408">
                <g id="g406" class="st32" enable-background="new">
                  <g id="g96" class="st58" opacity="0.1">
                    <path id="polygon94" class="st9" d="M370.25 163.088l.031 1.497-.023 3.514-.024-1.493z" style="" fill="#16193B"/>
                  </g>
                  <g id="g100" class="st58" opacity="0.1">
                    <path id="polygon98" class="st9" d="M261.859 165.379l.026 1.496-.037 8.023-.032-1.497z" style="" fill="#16193B"/>
                  </g>
                  <g id="g104" class="st58" opacity="0.1">
                    <path id="polygon102" class="st9" d="M275.768 165.429l.021 1.496-.037 8.019-.027-1.489z" style="" fill="#16193B"/>
                  </g>
                  <g id="g108" class="st58" opacity="0.1">
                    <path id="polygon106" class="st9" d="M289.648 165.479l.024 1.492-.039 8.023-.028-1.493z" style="" fill="#16193B"/>
                  </g>
                  <g id="g112" class="st58" opacity="0.1">
                    <path id="polygon110" class="st9" d="M303.557 165.528l.027 1.493-.043 8.023-.031-1.493z" style="" fill="#16193B"/>
                  </g>
                  <g id="g116" class="st58" opacity="0.1">
                    <path id="polygon114" class="st9" d="M317.434 165.575l.027 1.496-.043 8.023-.022-1.493z" style="" fill="#16193B"/>
                  </g>
                  <g id="g120" class="st58" opacity="0.1">
                    <path id="polygon118" class="st9" d="M331.342 165.625l.027 1.496-.043 8.023-.025-1.497z" style="" fill="#16193B"/>
                  </g>
                  <g id="g124" class="st58" opacity="0.1">
                    <path id="polygon122" class="st9" d="M342.449 165.667l.024 1.492-.039 8.023-.022-1.493z" style="" fill="#16193B"/>
                  </g>
                  <g id="g128" class="st58" opacity="0.1">
                    <path id="polygon126" class="st9" d="M356.354 165.713l.031 1.496-.047 8.022-.022-1.492z" style="" fill="#16193B"/>
                  </g>
                  <g id="g132" class="st58" opacity="0.1">
                    <path id="polygon130" class="st9" d="M261.801 176.103l.027 1.492-.055 10.697-.025-1.493z" style="" fill="#16193B"/>
                  </g>
                  <g id="g136" class="st58" opacity="0.1">
                    <path id="polygon134" class="st9" d="M275.709 176.148l.027 1.497-.054 10.697-.026-1.492z" style="" fill="#16193B"/>
                  </g>
                  <g id="g140" class="st58" opacity="0.1">
                    <path id="polygon138" class="st9" d="M289.594 176.202l.023 1.489-.053 10.701-.027-1.493z" style="" fill="#16193B"/>
                  </g>
                  <g id="g144" class="st58" opacity="0.1">
                    <path id="polygon142" class="st9" d="M303.498 176.249l.023 1.496-.052 10.696-.024-1.496z" style="" fill="#16193B"/>
                  </g>
                  <g id="g148" class="st58" opacity="0.1">
                    <path id="polygon146" class="st9" d="M317.381 176.298l.029 1.493-.06 10.697-.024-1.493z" style="" fill="#16193B"/>
                  </g>
                  <g id="g152" class="st58" opacity="0.1">
                    <path id="polygon150" class="st9" d="M331.289 176.348l.025 1.493-.052 10.697-.028-1.493z" style="" fill="#16193B"/>
                  </g>
                  <g id="g156" class="st58" opacity="0.1">
                    <path id="polygon154" class="st9" d="M342.396 176.387l.022 1.492-.053 10.697-.023-1.493z" style="" fill="#16193B"/>
                  </g>
                  <g id="g160" class="st58" opacity="0.1">
                    <path id="polygon158" class="st9" d="M356.301 176.437l.021 1.492-.049 10.697-.027-1.493z" style="" fill="#16193B"/>
                  </g>
                  <g id="g164" class="st58" opacity="0.1">
                    <path id="polygon162" class="st9" d="M261.74 189.474l.024 1.492-.071 13.398-.027-1.496z" style="" fill="#16193B"/>
                  </g>
                  <g id="g168" class="st58" opacity="0.1">
                    <path id="polygon166" class="st9" d="M275.645 189.523l.023 1.493-.07 13.394-.024-1.493z" style="" fill="#16193B"/>
                  </g>
                  <g id="g172" class="st58" opacity="0.1">
                    <path id="polygon170" class="st9" d="M289.525 189.569l.024 1.497-.07 13.394-.022-1.492z" style="" fill="#16193B"/>
                  </g>
                  <g id="g176" class="st58" opacity="0.1">
                    <path id="polygon174" class="st9" d="M303.43 189.623l.027 1.489-.066 13.398-.03-1.496z" style="" fill="#16193B"/>
                  </g>
                  <g id="g180" class="st58" opacity="0.1">
                    <path id="polygon178" class="st9" d="M317.311 189.669l.027 1.497-.072 13.394-.024-1.493z" style="" fill="#16193B"/>
                  </g>
                  <g id="g184" class="st58" opacity="0.1">
                    <path id="polygon182" class="st9" d="M331.215 189.719l.031 1.493-.068 13.397-.028-1.496z" style="" fill="#16193B"/>
                  </g>
                  <g id="g188" class="st58" opacity="0.1">
                    <path id="polygon186" class="st9" d="M342.326 189.758l.024 1.492-.069 13.398-.023-1.496z" style="" fill="#16193B"/>
                  </g>
                  <g id="g192" class="st58" opacity="0.1">
                    <path id="polygon190" class="st9" d="M356.23 189.808l.028 1.496-.072 13.39-.024-1.488z" style="" fill="#16193B"/>
                  </g>
                  <g id="g196" class="st58" opacity="0.1">
                    <path id="polyline194" class="st9" d="M303.373 207.184l-.027-1.493 11.107.039.027 1.493" style="" fill="#16193B"/>
                  </g>
                  <g id="g200" class="st58" opacity="0.1">
                    <path id="polygon198" class="st9" d="M261.656 205.546l.022 1.492-.041 8.023-.024-1.493z" style="" fill="#16193B"/>
                  </g>
                  <g id="g204" class="st58" opacity="0.1">
                    <path id="polygon202" class="st9" d="M275.561 205.592l.021 1.496-.037 8.019-.027-1.489z" style="" fill="#16193B"/>
                  </g>
                  <g id="g208" class="st58" opacity="0.1">
                    <path id="polygon206" class="st9" d="M289.441 205.646l.028 1.488-.043 8.023-.024-1.493z" style="" fill="#16193B"/>
                  </g>
                  <g id="g212" class="st58" opacity="0.1">
                    <path id="polygon210" class="st9" d="M303.346 205.691l.027 1.493-.039 8.023-.027-1.493z" style="" fill="#16193B"/>
                  </g>
                  <g id="g216" class="st58" opacity="0.1">
                    <path id="polygon214" class="st9" d="M317.23 205.738l.028 1.496-.047 8.023-.023-1.493z" style="" fill="#16193B"/>
                  </g>
                  <g id="g220" class="st58" opacity="0.1">
                    <path id="polygon218" class="st9" d="M331.139 205.788l.023 1.496-.043 8.023-.023-1.497z" style="" fill="#16193B"/>
                  </g>
                  <g id="g224" class="st58" opacity="0.1">
                    <path id="polygon222" class="st9" d="M342.242 205.83l.024 1.492-.039 8.023-.024-1.492z" style="" fill="#16193B"/>
                  </g>
                  <g id="g228" class="st58" opacity="0.1">
                    <path id="polygon226" class="st9" d="M356.15 205.876l.024 1.496-.043 8.023-.024-1.493z" style="" fill="#16193B"/>
                  </g>
                  <g id="g232" class="st58" opacity="0.1">
                    <path id="polygon230" class="st9" d="M261.598 216.243l.027 1.488-.055 10.724-.029-1.493z" style="" fill="#16193B"/>
                  </g>
                  <g id="g236" class="st58" opacity="0.1">
                    <path id="polygon234" class="st9" d="M275.506 216.289l.023 1.496-.054 10.72-.022-1.496z" style="" fill="#16193B"/>
                  </g>
                  <g id="g240" class="st58" opacity="0.1">
                    <path id="polygon238" class="st9" d="M289.387 216.339l.023 1.492-.053 10.724-.027-1.493z" style="" fill="#16193B"/>
                  </g>
                  <g id="g244" class="st58" opacity="0.1">
                    <path id="polygon242" class="st9" d="M303.291 216.389l.023 1.492-.052 10.723-.024-1.496z" style="" fill="#16193B"/>
                  </g>
                  <g id="g248" class="st58" opacity="0.1">
                    <path id="polygon246" class="st9" d="M317.174 216.438l.029 1.493-.057 10.719-.027-1.492z" style="" fill="#16193B"/>
                  </g>
                  <g id="g252" class="st58" opacity="0.1">
                    <path id="polygon250" class="st9" d="M331.086 216.488l.021 1.492-.052 10.721-.024-1.493z" style="" fill="#16193B"/>
                  </g>
                  <g id="g256" class="st58" opacity="0.1">
                    <path id="polygon254" class="st9" d="M342.189 216.526l.022 1.493-.053 10.724-.023-1.496z" style="" fill="#16193B"/>
                  </g>
                  <g id="g260" class="st58" opacity="0.1">
                    <path id="polygon258" class="st9" d="M356.098 216.573l.021 1.496-.053 10.72-.027-1.493z" style="" fill="#16193B"/>
                  </g>
                  <g id="g264" class="st58" opacity="0.1">
                    <path id="polygon262" class="st9" d="M261.533 229.637l.022 1.492-.057 10.697-.027-1.493z" style="" fill="#16193B"/>
                  </g>
                  <g id="g268" class="st58" opacity="0.1">
                    <path id="polygon266" class="st9" d="M275.438 229.687l.023 1.492-.055 10.697-.031-1.493z" style="" fill="#16193B"/>
                  </g>
                  <g id="g272" class="st58" opacity="0.1">
                    <path id="polygon270" class="st9" d="M289.318 229.732l.024 1.497-.055 10.697-.023-1.496z" style="" fill="#16193B"/>
                  </g>
                  <g id="g276" class="st58" opacity="0.1">
                    <path id="polygon274" class="st9" d="M303.223 229.786l.027 1.493-.059 10.693-.021-1.489z" style="" fill="#16193B"/>
                  </g>
                  <g id="g280" class="st58" opacity="0.1">
                    <path id="polygon278" class="st9" d="M317.104 229.833l.031 1.496-.055 10.696-.029-1.496z" style="" fill="#16193B"/>
                  </g>
                  <g id="g284" class="st58" opacity="0.1">
                    <path id="polygon282" class="st9" d="M331.008 229.882l.031 1.493-.053 10.697-.031-1.493z" style="" fill="#16193B"/>
                  </g>
                  <g id="g288" class="st58" opacity="0.1">
                    <path id="polygon286" class="st9" d="M342.119 229.921l.024 1.492-.053 10.701-.028-1.497z" style="" fill="#16193B"/>
                  </g>
                  <g id="g292" class="st58" opacity="0.1">
                    <path id="polygon290" class="st9" d="M356.023 229.971l.028 1.496-.057 10.697-.023-1.497z" style="" fill="#16193B"/>
                  </g>
                  <g id="g296" class="st58" opacity="0.1">
                    <path id="polygon294" class="st9" d="M261.459 243.008l.023 1.496-.037 8.042-.027-1.492z" style="" fill="#16193B"/>
                  </g>
                  <g id="g300" class="st58" opacity="0.1">
                    <path id="polygon298" class="st9" d="M275.367 243.062l.024 1.488-.037 8.045-.032-1.492z" style="" fill="#16193B"/>
                  </g>
                  <g id="g304" class="st58" opacity="0.1">
                    <path id="polygon302" class="st9" d="M289.25 243.107l.021 1.493-.037 8.046-.027-1.492z" style="" fill="#16193B"/>
                  </g>
                  <g id="g308" class="st58" opacity="0.1">
                    <path id="polygon306" class="st9" d="M303.154 243.157l.026 1.493-.041 8.045-.024-1.492z" style="" fill="#16193B"/>
                  </g>
                  <g id="g312" class="st58" opacity="0.1">
                    <path id="polygon310" class="st9" d="M317.035 243.207l.024 1.489-.039 8.05-.024-1.496z" style="" fill="#16193B"/>
                  </g>
                  <g id="g316" class="st58" opacity="0.1">
                    <path id="polygon314" class="st9" d="M330.943 243.253l.028 1.497-.043 8.042-.028-1.494z" style="" fill="#16193B"/>
                  </g>
                  <g id="g320" class="st58" opacity="0.1">
                    <path id="polygon318" class="st9" d="M342.051 243.292l.023 1.496-.039 8.045-.031-1.492z" style="" fill="#16193B"/>
                  </g>
                  <g id="g324" class="st58" opacity="0.1">
                    <path id="polygon322" class="st9" d="M355.955 243.346l.027 1.488-.043 8.05-.027-1.497z" style="" fill="#16193B"/>
                  </g>
                  <g id="g328">
                    <path id="polygon326" class="st17" d="M261.656 253.728l.022 1.496-3.024-.012-.029-1.492z" style="" fill="#808080"/>
                  </g>
                  <g id="g332">
                    <path id="polygon330" class="st17" d="M272.76 253.773l.021 1.489-11.103-.038-.022-1.496z" style="" fill="#808080"/>
                  </g>
                  <g id="g336">
                    <path id="polygon334" class="st17" d="M275.537 253.781l.027 1.489-2.783-.008-.021-1.489z" style="" fill="#808080"/>
                  </g>
                  <g id="g340" class="st58" opacity="0.1">
                    <path id="polygon338" class="st9" d="M370.234 166.606l.024 1.493-.438 85.674-.029-1.492z" style="" fill="#16193B"/>
                  </g>
                  <g id="g344">
                    <path id="polygon342" class="st17" d="M286.668 253.82l.018 1.492-11.122-.042-.027-1.489z" style="" fill="#808080"/>
                  </g>
                  <g id="g348">
                    <path id="polygon346" class="st17" d="M289.441 253.828l.032 1.496-2.787-.012-.018-1.492z" style="" fill="#808080"/>
                  </g>
                  <g id="g352">
                    <path id="polygon350" class="st17" d="M300.549 253.866l.027 1.497-11.103-.039-.032-1.496z" style="" fill="#808080"/>
                  </g>
                  <g id="g356">
                    <path id="polygon354" class="st17" d="M303.326 253.88l.028 1.49-2.778-.007-.027-1.497z" style="" fill="#808080"/>
                  </g>
                  <g id="g360">
                    <path id="polygon358" class="st17" d="M314.457 253.919l.023 1.493-11.126-.042-.028-1.49z" style="" fill="#808080"/>
                  </g>
                  <g id="g364">
                    <path id="polygon362" class="st17" d="M317.23 253.927l.028 1.496-2.778-.011-.023-1.493z" style="" fill="#808080"/>
                  </g>
                  <g id="g368">
                    <path id="polygon366" class="st17" d="M328.334 253.965l.027 1.493-11.103-.035-.028-1.496z" style="" fill="#808080"/>
                  </g>
                  <g id="g372">
                    <path id="polygon370" class="st17" d="M331.115 253.977l.024 1.493-2.778-.012-.027-1.493z" style="" fill="#808080"/>
                  </g>
                  <g id="g376">
                    <path id="polygon374" class="st17" d="M339.465 254.003l.031 1.497-8.357-.03-.024-1.493z" style="" fill="#808080"/>
                  </g>
                  <g id="g380">
                    <path id="polygon378" class="st17" d="M342.242 254.015l.028 1.492-2.774-.007-.031-1.497z" style="" fill="#808080"/>
                  </g>
                  <g id="g384">
                    <path id="polygon382" class="st17" d="M353.35 254.054l.027 1.492-11.107-.039-.028-1.492z" style="" fill="#808080"/>
                  </g>
                  <g id="g388">
                    <path id="polygon386" class="st17" d="M356.123 254.066l.031 1.492-2.777-.012-.027-1.492z" style="" fill="#808080"/>
                  </g>
                  <g id="g392">
                    <path id="polygon390" class="st17" d="M367.258 254.103l.023 1.497-11.127-.042-.031-1.492z" style="" fill="#808080"/>
                  </g>
                  <g id="g396">
                    <path id="polygon394" class="st52" d="M369.791 252.281l.029 1.492-.011 1.834-.026-1.496z" style="" fill="#949494"/>
                  </g>
                  <g id="g400">
                    <path id="path398" d="M367.727 163.081l2.523.008-.016 3.518-.443 85.674-.008 1.83-2.525-.008-11.135-.037-2.773-.012-11.107-.039-2.777-.012-8.35-.026-2.781-.012-11.104-.038-2.773-.008-11.131-.039-2.777-.015-11.107-.038-2.773-.008-11.131-.039-2.777-.008-11.104-.045-3.031-.008.016-1.83.037-8.046.016-2.678.055-10.697.014-2.674.055-10.72.016-2.674.037-8.026.016-2.67.07-13.398.014-2.674.055-10.697.016-2.674.037-8.049.02-3.514 3.027.007 11.107.042 2.773.011 11.131.039 2.777.008 11.107.038 2.775.012 11.129.038 2.779.012 11.104.038 2.777.008 8.352.031 2.775.012 11.111.038 2.773.012 11.129.037zm-14.342 40.109l.068-13.39-11.127-.042-.068 13.394 11.127.038m-52.799-.184l.07-13.394-11.131-.042-.068 13.398 11.129.038m27.791.099l.068-13.397-11.135-.039-.068 13.398 11.135.038m-13.912-.049l.072-13.394-11.107-.039-.068 13.391 11.103.042m-27.787-.1l.07-13.394-11.104-.039-.07 13.394 11.104.039m-13.905-.05l.07-13.394-11.104-.039-.074 13.394 11.108.039m94.493.338l.068-13.398-11.104-.038-.068 13.398 11.104.038m-39.016 23.952l.053-10.72-11.129-.038-.055 10.72 11.131.038m-27.789-.095l.057-10.72-11.131-.042-.057 10.724 11.131.038m52.801.184l.053-10.72-11.125-.039-.055 10.72 11.127.039m-38.92-.139l.057-10.72-11.107-.038-.053 10.72 11.103.038m14.111-40.109l.057-10.7-11.129-.039-.055 10.697 11.127.042m-41.896 40.014l.053-10.724-11.104-.039-.053 10.72 11.104.043m66.912-39.929l.053-10.697-11.125-.038-.055 10.697 11.127.038m-52.801-.184l.053-10.697-11.127-.039-.057 10.697 11.131.039m-28.02 40.063l.053-10.72-11.104-.039-.057 10.72 11.108.039m80.545 13.659l.053-10.701-11.127-.038-.057 10.696 11.131.043m13.95-13.322l.055-10.724-11.1-.042-.059 10.724 11.104.042m-66.752 13.134l.055-10.697-11.127-.042-.055 10.697 11.127.042m27.791.095l.057-10.697-11.135-.038-.053 10.697 11.131.038m-13.633-53.584l.057-10.696-11.107-.039-.053 10.697 11.103.038m-27.785-.095l.053-10.697-11.107-.042-.053 10.701 11.107.038m-13.912-.05l.057-10.697-11.107-.039-.053 10.697 11.103.039m41.421 53.683l.057-10.697-11.107-.039-.053 10.697 11.103.039m-27.791-.099l.059-10.697-11.104-.039-.062 10.697 11.107.039m80.868-53.25l.059-10.697-11.107-.038-.055 10.697 11.103.038m-94.776 53.2l.062-10.697-11.104-.038-.062 10.697 11.104.038m94.5.334l.053-10.697-11.104-.038-.053 10.697 11.104.038m-27.594-37.562l.068-13.394-8.334-.031-.064 13.394 8.33.031m-39.142 48.051l.037-8.049-11.125-.039-.043 8.046 11.131.042m52.801.184l.039-8.049-11.127-.038-.047 8.049 11.135.038m-25.016-.088l.047-8.045-11.135-.039-.039 8.042 11.127.042m-13.904-.049l.043-8.046-11.107-.039-.039 8.045 11.103.04m-27.785-.1l.037-8.046-11.104-.035-.045 8.042 11.112.039m-13.913-.047l.045-8.049-11.107-.038-.041 8.046 11.103.041m94.499.33l.039-8.042-11.104-.038-.043 8.042 11.108.038m-13.483-77.697l.039-8.022-11.127-.038-.037 8.022 11.125.038m-25.016-.088l.047-8.023-11.135-.042-.037 8.026 11.125.039m-27.785-.1l.039-8.019-11.127-.042-.043 8.023 11.131.038m52.594 40.351l.043-8.022-11.131-.039-.039 8.023 11.127.038m-25.012-.088l.043-8.023-11.131-.042-.043 8.026 11.131.039m-27.789-.1l.039-8.019-11.127-.039-.039 8.019 11.127.039m38.825 13.536l.057-10.724-8.324-.027-.055 10.72 8.322.031m-24.737-53.649l.047-8.023-11.107-.039-.047 8.023 11.107.039m-.207 40.162l.043-8.022-11.107-.039-.039 8.023 11.103.038m-27.578-40.258l.039-8.026-11.104-.039-.043 8.026 11.108.039m-.207 40.163l.039-8.026-11.104-.039-.043 8.026 11.108.039m52.939-26.581l.053-10.697-8.328-.031-.055 10.697 8.33.031m-66.64-13.632l.043-8.023-11.107-.042-.043 8.022 11.107.043m-.203 40.159l.039-8.019-11.104-.038-.043 8.022 11.108.035m94.703-39.826l.037-8.026-11.107-.038-.037 8.026 11.107.038m-.213 40.163l.047-8.022-11.107-.042-.043 8.026 11.103.038m-27.924 26.67l.055-10.701-8.334-.027-.053 10.697 8.332.031m-.057 10.72l.043-8.045-8.33-.031-.043 8.045 8.33.031m.399-77.652l.043-8.022-8.33-.031-.041 8.022 8.328.031m-.203 40.163l.039-8.022-8.326-.031-.043 8.022 8.33.031" class="st63" style="" fill="#FFFFFF"/>
                  </g>
                  <g id="g404">
                    <path id="polygon402" class="st17" d="M369.783 254.111l.026 1.496-2.528-.007-.023-1.497z" style="" fill="#808080"/>
                  </g>
                </g>
              </g>
            </g>
            <g id="g436">
              <g id="g416" class="st22" opacity="0.22">
                <path id="polygon412" d="M262.223 166.638l.023 1.492-.676 88.344-.029-1.492z"/>
                <path id="polygon414" d="M369.799 255.37l.025 1.489-.015 2.678-.026-1.496z"/>
              </g>
              <g id="g434">
                <g id="g432">
                  <g id="g430" class="st32" enable-background="new">
                    <g id="g420">
                      <path id="polygon418" class="st52" d="M262.223 162.708l.023 1.493-.676 88.345-.029-1.492z" style="" fill="#949494"/>
                    </g>
                    <g id="g424">
                      <path id="polygon422" class="st52" d="M369.799 251.441l.025 1.488-.015 2.678-.026-1.496z" style="" fill="#949494"/>
                    </g>
                    <g id="g428">
                      <path id="polygon426" class="st63" d="M261.541 251.054l108.258.387-.016 2.67-111.054-.391.716-91.023 2.778.011z" style="" fill="#FFFFFF"/>
                    </g>
                  </g>
                </g>
              </g>
            </g>
            <g id="g452">
              <g id="g440" class="st22" opacity="0.22">
                <path id="path438" d="M228.275 177.042c-8.816-8.966-21.078-14.53-34.652-14.53-13.521 0-25.744 5.525-34.562 14.434l34.885 35.843 34.329-35.747z"/>
              </g>
              <g id="g450">
                <g id="g448">
                  <path id="path442" d="M193.301 255.796c27.502-.174 48.611-21.866 48.611-48.601 0-13.275-5.494-25.307-14.123-34.082l-34.488 35.747v46.936z" class="st23" style="" fill="#B3B3B3"/>
                  <path id="path444" d="M228.275 173.114c-8.816-8.966-21.078-14.53-34.652-14.53-13.521 0-25.744 5.525-34.562 14.434l34.885 35.843 34.329-35.747z" class="st17" style="" fill="#808080"/>
                  <path id="path446" d="M193.301 255.803V208.86l-34.562-35.843c-8.678 8.782-14.045 20.849-14.045 34.177-.001 26.844 21.105 48.609 48.607 48.609z" class="st68" style="" fill="#CCCCCC"/>
                </g>
              </g>
            </g>
          </g>
        </g>
        <g id="g460">
          <path id="path458" d="M341.08 184.313c2.828.011 5.092 2.21 5.076 4.911-.008 2.72-2.295 4.907-5.127 4.896-.648 0-1.297-.15-1.895-.368l-19.605 32.144a4.793 4.793 0 0 1 1.412 3.403c-.016 2.697-2.303 4.907-5.127 4.896-2.805-.012-5.072-2.233-5.057-4.934.008-1.178.465-2.237 1.193-3.081l-8.314-8.387c-.521.168-1.047.284-1.627.284a5.392 5.392 0 0 1-1.971-.391l-8.074 8.379c.723.867 1.189 1.926 1.182 3.139-.006 2.693-2.301 4.903-5.125 4.896-2.801-.011-5.064-2.236-5.049-4.934.012-2.725 2.301-4.911 5.104-4.896.543 0 1.074.123 1.572.269l8.219-8.548c-.568-.798-.938-1.788-.934-2.847.016-2.701 2.33-4.88 5.131-4.873 2.801.011 5.064 2.21 5.053 4.911a4.686 4.686 0 0 1-1.166 3.077l8.311 8.391c.525-.165 1.051-.288 1.6-.284.453.004.852.073 1.273.172l19.805-32.458c-.598-.821-.967-1.808-.959-2.893.007-2.698 2.294-4.881 5.099-4.874z" class="st63" style="" fill="#FFFFFF"/>
        </g>
      </g>
    </g>
  </g>
</svg>