<?xml version="1.0" standalone="no"?>
<!DOCTYPE svg PUBLIC "-//W3C//DTD SVG 20010904//EN"
 "http://www.w3.org/TR/2001/REC-SVG-20010904/DTD/svg10.dtd">
<svg version="1.0" xmlns="http://www.w3.org/2000/svg"
 width="190.000000pt" height="190.000000pt" viewBox="0 0 190.000000 190.000000"
 preserveAspectRatio="xMidYMid meet">
<metadata>
Created by potrace 1.11, written by Peter Selinger 2001-2013
</metadata>
<g transform="translate(0.000000,190.000000) scale(0.100000,-0.100000)"
fill="#000000" stroke="none">
<path d="M830 1879 c-126 -22 -236 -60 -305 -104 -67 -43 -142 -125 -167 -183
-11 -26 -27 -63 -35 -82 -25 -55 -33 -98 -40 -210 -9 -153 -7 -275 5 -309 l10
-30 -41 2 c-39 2 -42 0 -53 -33 -12 -35 -11 -188 1 -245 8 -38 66 -141 102
-181 32 -35 58 -47 93 -46 20 2 32 -9 60 -55 44 -72 188 -219 258 -263 l52
-34 -5 -53 -5 -53 170 0 170 0 0 45 c0 34 4 47 18 52 45 16 164 102 223 162
57 57 140 168 151 202 2 5 15 6 35 0 26 -8 37 -5 63 14 62 46 122 147 138 233
5 29 9 92 8 141 -2 104 -13 126 -61 118 l-31 -5 0 56 c0 32 -1 66 -2 77 -2 11
0 45 3 75 4 37 0 85 -13 145 l-19 90 46 5 46 5 -34 12 c-30 12 -81 55 -81 70
0 3 7 2 16 -1 9 -4 2 9 -15 29 -17 20 -31 44 -31 55 0 22 -101 130 -122 130
-8 0 -25 14 -37 31 -14 19 -49 43 -90 61 -36 16 -75 34 -86 39 -123 56 -234
67 -395 38z"/>
</g>
</svg>
